<svg width="33" height="32" viewBox="0 0 33 32" fill="none" xmlns="http://www.w3.org/2000/svg">
<path d="M3.38361 14.7549C2.90321 14.7785 2.42282 14.8032 1.94242 14.8288C1.85882 14.8338 1.78058 14.8225 1.7101 14.797C1.69369 14.8084 1.67663 14.8189 1.65896 14.8286L1.61715 14.7524L1.65896 14.8286C1.52463 14.9023 1.36652 14.9196 1.21944 14.8767L1.21123 14.8743L1.21128 14.8741C1.06972 14.827 0.951204 14.7281 0.879462 14.5972C0.809838 14.4703 0.789251 14.3223 0.821314 14.1814C1.06334 12.4844 1.10489 10.7648 0.945079 9.05808M3.38361 14.7549L4.29791 31.3864C12.9412 30.5889 21.636 30.5138 30.2918 31.1618C30.2975 31.1623 30.3031 31.1625 30.3087 31.1625C30.622 31.1625 30.8143 30.9496 30.8608 30.7144C30.8977 30.5272 30.8461 30.3046 30.6856 30.1574C29.7831 25.0231 29.1743 19.8414 28.8623 14.6376C28.8613 14.5541 28.844 14.4776 28.8134 14.4098C29.6893 14.4292 30.5651 14.4518 31.4409 14.4777L31.4409 14.4778H31.4475C31.6538 14.4778 31.8133 14.3825 31.9089 14.2435C31.9506 14.2189 31.9894 14.189 32.0242 14.1542C32.1326 14.0458 32.1934 13.8989 32.1934 13.7457C32.1934 13.7369 32.1929 13.728 32.1919 13.7193L31.638 9.01118C31.6523 8.96055 31.6597 8.90777 31.6597 8.85423C31.6597 8.70105 31.5989 8.5541 31.4905 8.44575C31.3827 8.33792 31.2366 8.27713 31.0842 8.27656C29.4065 8.24778 27.7285 8.22486 26.0503 8.20781C26.707 7.11797 27.3894 5.45375 27.511 3.97731C27.5787 3.15479 27.4751 2.35653 27.0586 1.75071C26.6337 1.13264 25.9135 0.75777 24.8472 0.728455L24.8472 0.728141L24.8353 0.728441C23.0928 0.77231 21.3832 1.21271 19.8364 2.01616C18.7935 2.49015 17.8511 3.14935 17.0525 3.9571C16.2768 3.13813 15.3568 2.46107 14.3332 1.96271C12.717 1.06446 10.8956 0.60043 9.04669 0.615874C8.16146 0.571506 7.28694 0.826075 6.56376 1.33878C5.83869 1.85282 5.30812 2.59631 5.05777 3.44912C5.05492 3.45881 5.05273 3.46867 5.05121 3.47865C4.90314 4.44683 4.99032 5.43642 5.30537 6.3638C5.54265 7.06222 5.9039 7.7099 6.3699 8.27658C4.76726 8.30403 3.16437 8.33683 1.56124 8.37495C1.34306 8.37594 1.17944 8.48612 1.08763 8.63792C0.984056 8.74236 0.929213 8.88884 0.945079 9.05808M3.38361 14.7549C3.37953 14.7805 3.37699 14.8069 3.3761 14.8341M3.38361 14.7549L3.3761 14.8341M0.945079 9.05808L1.17036 9.03699M0.945079 9.05808L1.17036 9.03699M1.17036 9.03699C1.15952 8.92136 1.2007 8.83545 1.26787 8.77927L1.04384 14.2237C1.28968 12.5058 1.33215 10.7649 1.17036 9.03699ZM3.3761 14.8341C3.16259 20.136 3.26583 25.446 3.68527 30.7356M3.3761 14.8341L4.29758 31.3864C4.13241 31.4018 3.98628 31.35 3.88017 31.2462C3.78891 31.157 3.73967 31.0419 3.72152 30.9299M3.68527 30.7356C3.68635 30.8041 3.69864 30.8694 3.72152 30.9299M3.68527 30.7356C3.68522 30.7323 3.68519 30.729 3.68519 30.7257H3.91146L3.6859 30.7436C3.68569 30.7409 3.68548 30.7383 3.68527 30.7356ZM3.72152 30.9299C3.71957 30.9178 3.71797 30.9058 3.71673 30.8939L3.94177 30.8704L3.73637 30.9653C3.73101 30.9537 3.72606 30.9419 3.72152 30.9299ZM16.8081 14.3464C20.4576 14.3041 24.107 14.318 27.7565 14.388C27.7192 14.4673 27.7013 14.5586 27.7074 14.6582C27.7708 15.753 27.8472 16.8468 27.9367 17.9395C24.2708 17.7817 20.605 17.6918 16.9392 17.6696L16.8081 14.3464ZM4.5313 14.8422C4.5313 14.7928 4.52577 14.7455 4.51522 14.7009C8.22782 14.5297 11.9404 14.4166 15.653 14.3616L15.7833 17.6649C12.0036 17.6568 8.22385 17.7208 4.44412 17.857C4.46178 16.855 4.49078 15.853 4.53112 14.8513L4.5313 14.8514V14.8422ZM7.82491 8.25312C7.81438 8.20795 7.79794 8.1631 7.77497 8.11947C7.7878 8.04497 7.76257 7.9676 7.70548 7.91488C7.09956 7.35524 6.64884 6.64826 6.3972 5.86276C6.14691 5.08148 6.10203 4.24899 6.26678 3.44548C6.53107 2.66518 7.08519 2.20055 7.77257 1.94705C8.47113 1.68943 9.30382 1.6527 10.0843 1.74167C11.6443 1.92375 13.1408 2.46499 14.4564 3.32287L14.4564 3.32292L14.4606 3.32554C14.8556 3.57092 15.6531 4.12493 16.3273 4.78223C16.197 4.94937 16.0721 5.12124 15.9529 5.29759C15.6334 5.76921 15.3836 6.52122 15.4278 7.18255C15.4501 7.51668 15.5491 7.84786 15.7747 8.1041C15.7968 8.12918 15.8199 8.1533 15.8439 8.17643C13.1716 8.18714 10.4986 8.2127 7.82491 8.25312ZM24.7245 8.19556C22.4762 8.17686 20.2274 8.16868 17.9781 8.17104C18.1977 7.97385 18.3442 7.71792 18.4311 7.44289C18.6284 6.81772 18.5306 6.05604 18.2379 5.50161C18.2356 5.49711 18.233 5.49268 18.2304 5.48835C18.0979 5.27388 17.9573 5.06533 17.8089 4.86311C18.1758 4.49488 18.5771 4.16197 19.0078 3.86909C20.242 3.04298 21.6167 2.44919 23.0643 2.11695L23.0665 2.11643C23.7663 1.94849 24.6217 1.81313 25.2893 1.96095C25.6176 2.03365 25.8837 2.17122 26.068 2.3915C26.2507 2.60968 26.3743 2.9342 26.3718 3.42279C26.2981 5.06839 25.7564 6.65883 24.8104 8.00738L24.8103 8.00734L24.8074 8.01181C24.7677 8.07132 24.7402 8.13321 24.7245 8.19556ZM28.0366 19.0996C28.3649 22.7315 28.8373 26.3495 29.4528 29.9449C25.4415 29.6671 21.4226 29.5441 17.4049 29.5757C17.4065 29.5543 17.407 29.5323 17.4063 29.5098L17.4062 29.5079L16.9848 18.8253C20.6687 18.8481 24.3526 18.9395 28.0366 19.0996ZM16.6898 6.33487L16.69 6.33496L16.694 6.32695C16.8077 6.09979 16.9408 5.88319 17.0919 5.67956C17.2599 5.93495 17.3744 6.18199 17.4197 6.41158C17.4766 6.70014 17.4257 6.96245 17.2206 7.20156C17.0739 7.3677 16.9751 7.38338 16.912 7.37077C16.832 7.35476 16.7088 7.27654 16.5531 7.0545C16.5212 6.8066 16.5688 6.5545 16.6898 6.33487ZM4.79929 30.1838C4.51911 26.4666 4.39554 22.7397 4.42877 19.0132C8.22882 18.8759 12.0289 18.8116 15.8289 18.8204L16.2511 29.5218C16.2512 29.5448 16.2526 29.5672 16.2552 29.589C12.4321 29.6472 8.61088 29.8455 4.79929 30.1838ZM30.9851 13.309C21.3301 13.0369 11.6841 13.1563 2.04702 13.6673C2.20563 12.29 2.23657 10.9008 2.13934 9.51741C11.5936 9.30826 21.0564 9.27685 30.528 9.42317L30.9851 13.309Z" fill="#272727" stroke="#272727" stroke-width="0.452541" stroke-linejoin="round"/>
</svg>
