<svg width="1920" height="820" viewBox="0 0 1920 820" fill="none" xmlns="http://www.w3.org/2000/svg">
<rect width="1285" height="820" fill="#FAF8F5"/>
<rect x="1285" width="635" height="820" fill="#A9D6CB"/>
<g opacity="0.05">
<path d="M1540.87 318.561C1542.26 282.844 1536.26 247.227 1523.25 213.934C1510.24 180.642 1490.5 150.391 1465.27 125.072L1448.5 108.535L1431.73 125.072C1407.48 149.126 1388.27 177.767 1375.21 209.324C1362.15 240.881 1355.5 274.722 1355.65 308.875C1355.65 312.182 1355.65 315.49 1355.65 318.561C1319.45 296.876 1278.07 285.368 1235.88 285.25H1212.25V308.875C1212.25 367.442 1234 423.923 1273.29 467.358C1312.58 510.793 1366.6 538.087 1424.88 543.943V545.125H1472.12V543.943C1530.4 538.087 1584.42 510.793 1623.71 467.358C1663 423.923 1684.75 367.442 1684.75 308.875V285.25H1661.12C1618.77 285.283 1577.21 296.794 1540.87 318.561ZM1448.5 177.283C1468.78 203.09 1482.81 233.241 1489.49 265.375C1496.17 297.508 1495.32 330.753 1487.01 362.503C1471.48 379.431 1458.51 398.532 1448.5 419.203C1438.49 398.532 1425.52 379.431 1409.99 362.503C1405.37 344.998 1402.99 326.979 1402.9 308.875C1402.73 261.108 1418.81 214.703 1448.5 177.283ZM1261.15 334.153C1302.19 339.683 1340.28 358.537 1369.56 387.817C1398.84 417.098 1417.69 455.183 1423.22 496.221C1382.18 490.691 1344.1 471.837 1314.82 442.557C1285.54 413.277 1266.68 375.191 1261.15 334.153ZM1473.78 496.221C1479.31 455.183 1498.16 417.098 1527.44 387.817C1556.72 358.537 1594.81 339.683 1635.85 334.153C1630.32 375.191 1611.46 413.277 1582.18 442.557C1552.9 471.837 1514.82 490.691 1473.78 496.221Z" fill="#264065"/>
</g>
</svg>
